<svg width="17" height="16" viewBox="0 0 17 16" fill="none" xmlns="http://www.w3.org/2000/svg">
<path d="M9.51431 3.81794C9.51431 3.98169 9.51431 4.51541 9.51431 5.27366H12.1213L11.8387 7.59763H9.51431C9.51431 11.1816 9.51431 15.9843 9.51431 15.9843H6.42913C6.42913 15.9843 6.42913 11.2452 6.42913 7.59763H4.82153V5.27366H6.42913C6.42913 4.35204 6.42913 3.69669 6.42913 3.51422C6.42913 2.64485 6.36363 2.23235 6.73303 1.55866C7.10263 0.885005 8.14513 -0.00543266 9.94822 0.0160048C11.7518 0.0382236 12.512 0.211724 12.512 0.211724L12.1213 2.6885C12.1213 2.6885 10.9697 2.38441 10.4044 2.49279C9.83985 2.60119 9.51431 2.94894 9.51431 3.81794Z" fill="white"/>
</svg>
