<svg width="19" height="18" viewBox="0 0 19 18" fill="none" xmlns="http://www.w3.org/2000/svg">
<path d="M3.33398 2.25H15.334C15.7482 2.25 16.084 2.58579 16.084 3V15C16.084 15.4142 15.7482 15.75 15.334 15.75H3.33398C2.91977 15.75 2.58398 15.4142 2.58398 15V3C2.58398 2.58579 2.91977 2.25 3.33398 2.25ZM4.08398 3.75V14.25H14.584V3.75H4.08398ZM5.95898 6.75C5.33766 6.75 4.83398 6.24632 4.83398 5.625C4.83398 5.00368 5.33766 4.5 5.95898 4.5C6.5803 4.5 7.08398 5.00368 7.08398 5.625C7.08398 6.24632 6.5803 6.75 5.95898 6.75ZM5.20898 7.5H6.70898V13.125H5.20898V7.5ZM9.334 7.82212C9.7723 7.399 10.2831 7.125 10.834 7.125C12.3872 7.125 13.459 8.38417 13.459 9.9375V13.125H11.959V9.9375C11.959 9.21263 11.3714 8.625 10.6465 8.625C9.92163 8.625 9.334 9.21263 9.334 9.9375V13.125H7.834V7.5H9.334V7.82212Z" fill="white"/>
</svg>
